<svg width="46" height="40" viewBox="0 0 46 40" fill="none" xmlns="http://www.w3.org/2000/svg">
<g opacity="0.6" clip-path="url(#clip0_226_710)">
<path d="M33.3508 17.4019L39.094 18.5707" stroke="black" stroke-width="1.2" stroke-miterlimit="10" stroke-linecap="round" stroke-linejoin="round"/>
<path d="M7.55225 18.5707L13.2843 17.4041" stroke="black" stroke-width="1.2" stroke-miterlimit="10" stroke-linecap="round" stroke-linejoin="round"/>
<path d="M16.8091 12.9974L18.4273 12.788C18.793 12.7407 19.1092 12.5361 19.2728 12.241L22.3161 6.75057C22.728 6.00746 23.9181 6.00746 24.33 6.75057L27.3733 12.2411C27.5368 12.5361 27.853 12.7407 28.2187 12.7881L35.0236 13.6685C35.9446 13.7877 36.3124 14.7955 35.6459 15.374L30.7218 19.6478C30.5128 19.8292 30.3935 20.0738 30.3834 20.3285" stroke="black" stroke-width="1.2" stroke-miterlimit="10" stroke-linecap="round" stroke-linejoin="round"/>
<path d="M16.2628 20.3361C16.2548 20.0787 16.1352 19.831 15.9241 19.6477L11 15.3739C10.3335 14.7955 10.7013 13.7877 11.6223 13.6685L13.8135 13.3849" stroke="black" stroke-width="1.2" stroke-miterlimit="10" stroke-linecap="round" stroke-linejoin="round"/>
<path d="M12.142 37.1583L8.25259 36.3668C7.84281 36.2834 7.55225 35.9588 7.55225 35.5845V24.9161" stroke="black" stroke-width="1.2" stroke-miterlimit="10" stroke-linecap="round" stroke-linejoin="round"/>
<path d="M39.0939 24.9411V35.5845C39.0939 35.9588 38.8033 36.2834 38.3936 36.3668L23.5187 39.3942C23.39 39.4204 23.2563 39.4204 23.1276 39.3942L15.1313 37.7668" stroke="black" stroke-width="1.2" stroke-miterlimit="10" stroke-linecap="round" stroke-linejoin="round"/>
<path d="M23.323 32.7858V39.3167" stroke="black" stroke-width="1.2" stroke-miterlimit="10" stroke-linecap="round" stroke-linejoin="round"/>
<path d="M23.323 21.7805V30.0501" stroke="black" stroke-width="1.2" stroke-miterlimit="10" stroke-linecap="round" stroke-linejoin="round"/>
<path d="M35.3627 25.659L44.9065 23.7464L39.0939 18.5707L23.323 21.7804L7.55216 18.5707L1.7395 23.7464L17.5554 26.916L23.323 21.7804" stroke="black" stroke-width="1.2" stroke-miterlimit="10" stroke-linecap="round" stroke-linejoin="round"/>
<path d="M23.323 21.7805L29.0906 26.916L32.3814 26.2565" stroke="black" stroke-width="1.2" stroke-miterlimit="10" stroke-linecap="round" stroke-linejoin="round"/>
<path d="M23.323 0.586243V2.99355" stroke="black" stroke-width="1.2" stroke-miterlimit="10" stroke-linecap="round" stroke-linejoin="round"/>
<path d="M23.323 0.586243V2.99355" stroke="black" stroke-width="1.2" stroke-miterlimit="10" stroke-linecap="round" stroke-linejoin="round"/>
<path d="M30.613 5.68243L28.8752 7.52657" stroke="black" stroke-width="1.2" stroke-miterlimit="10" stroke-linecap="round" stroke-linejoin="round"/>
<path d="M30.613 5.68243L28.8752 7.52657" stroke="black" stroke-width="1.2" stroke-miterlimit="10" stroke-linecap="round" stroke-linejoin="round"/>
<path d="M38.6018 8.33838L36.5308 9.8858" stroke="black" stroke-width="1.2" stroke-miterlimit="10" stroke-linecap="round" stroke-linejoin="round"/>
<path d="M38.6018 8.33838L36.5308 9.8858" stroke="black" stroke-width="1.2" stroke-miterlimit="10" stroke-linecap="round" stroke-linejoin="round"/>
<path d="M16.0332 5.68243L17.771 7.52657" stroke="black" stroke-width="1.2" stroke-miterlimit="10" stroke-linecap="round" stroke-linejoin="round"/>
<path d="M16.0332 5.68243L17.771 7.52657" stroke="black" stroke-width="1.2" stroke-miterlimit="10" stroke-linecap="round" stroke-linejoin="round"/>
<path d="M8.04419 8.33838L10.1152 9.8858" stroke="black" stroke-width="1.2" stroke-miterlimit="10" stroke-linecap="round" stroke-linejoin="round"/>
<path d="M8.04419 8.33838L10.1152 9.8858" stroke="black" stroke-width="1.2" stroke-miterlimit="10" stroke-linecap="round" stroke-linejoin="round"/>
</g>
<defs>
<clipPath id="clip0_226_710">
<rect width="44.9231" height="40" fill="white" transform="translate(0.861572)"/>
</clipPath>
</defs>
</svg>
