<svg width="46" height="40" viewBox="0 0 46 40" fill="none" xmlns="http://www.w3.org/2000/svg">
<g opacity="0.6" clip-path="url(#clip0_226_768)">
<path d="M42.7319 20.897C40.6676 19.0672 38.2811 20.7798 38.2811 20.7798V11.1469C38.2811 10.8234 37.9867 10.5609 37.6234 10.5609C37.2598 10.5609 36.9654 10.8234 36.9654 11.1469V21.6041C36.9654 21.6041 33.8276 23.8066 32.4789 24.3449V7.00044C32.4789 6.19416 33.2155 5.53834 34.121 5.53834H35.3233C36.2288 5.53834 36.9654 6.19416 36.9654 7.00044V8.74819C36.9654 9.07199 37.2598 9.33414 37.6234 9.33414C37.9867 9.33414 38.2811 9.07199 38.2811 8.74819V7.00044C38.2811 5.5481 36.9544 4.36676 35.3233 4.36676H34.121C32.4899 4.36676 31.1628 5.5481 31.1628 7.00044V24.8094C30.7704 24.9073 30.3677 24.9739 29.9584 25.009V12.6563C29.9584 11.1966 28.6248 10.0092 26.9859 10.0092H25.8127C24.1737 10.0092 22.8401 11.1966 22.8401 12.6563V18.6262L21.6354 19.1956V17.2089C21.6354 15.8948 20.4348 14.8258 18.9593 14.8258H17.1935C15.7177 14.8258 14.5174 15.8948 14.5174 17.2089V22.5599L12.3688 23.5752L6.33522 25.1106C5.28541 25.3776 4.40869 25.9898 3.86716 26.8339C3.32529 27.6784 3.17826 28.6616 3.45313 29.6025L4.12798 31.9145C4.21915 32.2276 4.57834 32.4153 4.93033 32.3342C5.28198 32.2527 5.49311 31.9328 5.4016 31.6194L4.72675 29.3077C4.33534 27.9668 5.20075 26.6179 6.69715 26.2373L12.2135 24.8335L16.3596 34.6865C16.6372 35.3463 16.5934 37.2286 14.4002 37.9223L10.2315 38.7655C8.7786 39.059 7.34698 38.2836 6.97202 36.9994L6.1258 34.0999C6.03429 33.7868 5.6751 33.5988 5.32345 33.68C4.97146 33.7615 4.76068 34.0813 4.85185 34.3947L5.69841 37.2945C6.17413 38.9235 7.79939 39.9999 9.60871 39.9999C10.9382 39.9999 14.6919 39.0648 14.6919 39.0648C15.8342 38.8341 16.8083 38.1749 17.3638 37.257C17.8224 36.4995 17.9585 35.6279 17.7618 34.7975L32.1842 31.6536C33.3769 31.3933 34.5093 30.8888 35.458 30.1945L42.4766 25.0596C44.6163 23.3699 43.3612 21.4546 42.7319 20.897ZM25.8127 11.1811H26.9859C27.8993 11.1811 28.6423 11.843 28.6423 12.6563V25.0383L24.49 25.0367C24.1086 25.0337 24.3725 24.8094 24.3934 24.7941L25.5892 23.9317C26.7048 23.1269 27.4335 22.0082 27.7546 20.6059C27.9586 19.7163 27.5774 18.8258 26.7607 18.2819C25.9977 17.7741 25.0165 17.6765 24.1562 18.0122V12.6563C24.1562 11.843 24.8993 11.1811 25.8127 11.1811ZM15.8335 17.2089C15.8335 16.5412 16.4436 15.9977 17.1935 15.9977H18.9593C19.7092 15.9977 20.3196 16.5412 20.3196 17.2089V19.8176L15.8332 21.938V17.2089H15.8335ZM41.6413 24.1545L34.6224 29.2894C33.8252 29.8729 32.8738 30.2968 31.8712 30.5153L17.3426 33.6827L13.4354 24.3983L24.5915 19.1255C25.0449 18.9109 25.5614 18.9466 25.9724 19.2204C26.3833 19.4941 26.5677 19.9244 26.4652 20.3718C26.2065 21.5007 25.6331 22.3921 24.7608 23.021L23.565 23.8838C23.0749 24.2372 22.8943 24.8076 23.1047 25.337C23.3151 25.8662 23.8587 26.2086 24.4894 26.2086L29.2839 26.2105H29.2873C30.9942 26.2105 32.6345 25.7484 34.0308 24.8741L39.3892 21.519C40.1395 21.049 41.1495 21.132 41.7904 21.7161C42.1596 22.0518 42.882 23.0494 41.6413 24.1545Z" fill="black"/>
<path d="M13.8395 35.0618C13.8395 33.7889 12.6766 32.7532 11.247 32.7532C9.81745 32.7532 8.65454 33.7889 8.65454 35.0618C8.65454 36.3344 9.81745 37.3702 11.247 37.3702C12.6766 37.3702 13.8395 36.3344 13.8395 35.0618ZM9.97065 35.0618C9.97065 34.435 10.543 33.9251 11.247 33.9251C11.9507 33.9251 12.5234 34.435 12.5234 35.0618C12.5234 35.6884 11.951 36.1983 11.247 36.1983C10.543 36.1983 9.97065 35.6884 9.97065 35.0618Z" fill="black"/>
<path d="M6.51497 18.397L16.0808 9.8139L18.2325 10.8048C19.0033 11.1597 19.9414 11.0383 20.5665 10.5024L25.7734 6.03946C25.7734 6.03946 25.6302 8.33165 27.798 8.33165C28.9139 8.33165 29.8222 7.52293 29.8222 6.52897V1.80238C29.8222 1.79689 29.8218 1.79109 29.8218 1.78529C29.8146 0.552066 28.8018 0 27.798 0H22.5359C21.4196 0 20.5117 0.808721 20.5117 1.80238C20.5117 3.78359 22.7762 3.60476 22.7762 3.60476L18.8038 7.00932L16.6209 6.00406C15.8316 5.64029 14.8805 5.77365 14.254 6.33518L3.64146 15.8576C2.85522 16.5632 2.86001 17.7067 3.65242 18.4068C4.03423 18.744 5.33801 19.445 6.51497 18.397ZM4.57542 16.6831L15.188 7.16069C15.325 7.038 15.5451 6.82316 16.0164 7.04502L18.6181 8.24315C18.8686 8.35851 19.1737 8.31914 19.3769 8.14488L24.8648 3.44118C25.0581 3.27547 25.1191 3.02156 25.0187 2.8C24.9183 2.57814 24.677 2.43318 24.4083 2.43318H22.5359C22.1455 2.43318 21.8278 2.15028 21.8278 1.80238C21.8278 1.45478 22.1455 1.17188 22.5359 1.17188H27.798C27.9916 1.17188 28.5057 1.17188 28.5057 1.79872C28.5057 1.8039 28.5061 1.80909 28.5061 1.81459V6.52897C28.5061 6.87657 28.1883 7.15947 27.798 7.15947C27.4072 7.15947 27.0895 6.87657 27.0895 6.52897V4.6622C27.0895 4.42721 26.9319 4.21481 26.6892 4.12295C26.4466 4.03079 26.1655 4.07717 25.9753 4.24014L19.6538 9.65826C19.4352 9.84564 19.1068 9.88836 18.8374 9.76416L16.2566 8.57549C16.0013 8.458 15.6897 8.50164 15.4872 8.68322L5.58101 17.5715C5.14916 17.956 4.71286 17.693 4.57919 17.5749C4.30226 17.3298 4.30054 16.9297 4.57542 16.6831Z" fill="black"/>
</g>
<defs>
<clipPath id="clip0_226_768">
<rect width="44.9231" height="40" fill="white" transform="translate(0.861572)"/>
</clipPath>
</defs>
</svg>
