<svg width="21" height="21" viewBox="0 0 21 21" fill="none" xmlns="http://www.w3.org/2000/svg">
<path d="M20.1797 11.3203H11.3203V20.1797C11.3203 20.6327 10.9531 21 10.5 21C10.0469 21 9.67969 20.6327 9.67969 20.1797V11.3203H0.820312C0.367254 11.3203 0 10.9531 0 10.5C0 10.0469 0.367254 9.67969 0.820312 9.67969H9.67969V0.820312C9.67969 0.367254 10.0469 0 10.5 0C10.9531 0 11.3203 0.367254 11.3203 0.820312V9.67969H20.1797C20.6327 9.67969 21 10.0469 21 10.5C21 10.9531 20.6327 11.3203 20.1797 11.3203Z" fill="white"/>
</svg>
