<svg width="45" height="40" viewBox="0 0 45 40" fill="none" xmlns="http://www.w3.org/2000/svg">
<g opacity="0.6" clip-path="url(#clip0_226_692)">
<path d="M42.767 8.82584L22.979 0.0581812C22.8036 -0.0194751 22.5993 -0.0194751 22.4239 0.0581812L2.63585 8.82584C2.41522 8.92357 2.27502 9.12865 2.27502 9.35349V30.6464C2.27502 30.8712 2.41522 31.0763 2.63585 31.174L22.4238 39.9417C22.5115 39.9805 22.6065 40 22.7014 40C22.7963 40 22.8912 39.9805 22.979 39.9417L42.767 31.174C42.9876 31.0763 43.1278 30.8712 43.1278 30.6464V9.35357C43.1278 9.12857 42.9875 8.92365 42.767 8.82584ZM22.7014 1.23654L41.021 9.35349L35.7105 11.7065C35.6769 11.6829 35.6414 11.6612 35.6024 11.644L17.4073 3.58224L22.7014 1.23654ZM15.9655 4.24474L34.2584 12.3499L30.5118 14.01L12.2265 5.9081L15.9655 4.24474ZM34.6864 13.4615V19.5979L31.1868 21.1485V15.0121L34.6864 13.4615ZM41.851 30.2787L23.3398 38.4804V18.4889L27.7553 16.5325C28.0728 16.3918 28.2059 16.0415 28.0526 15.7501C27.8993 15.4587 27.5177 15.3364 27.2002 15.4772L22.7014 17.4705L20.9312 16.6861C20.6136 16.5453 20.232 16.6676 20.0787 16.959C19.9254 17.2504 20.0586 17.6008 20.3761 17.7415L22.063 18.4889V38.4804L3.55184 30.2786V10.287L17.6479 16.5327C17.7374 16.5724 17.832 16.5912 17.925 16.5912C18.1623 16.5912 18.3903 16.4691 18.5003 16.2598C18.6536 15.9684 18.5205 15.6181 18.203 15.4774L4.38186 9.35349L10.7238 6.54349L29.9011 15.0406C29.9039 15.0442 29.9071 15.0474 29.91 15.0509V22.0821C29.91 22.2837 30.0229 22.4711 30.209 22.5784C30.3124 22.6379 30.4302 22.668 30.5485 22.668C30.6431 22.668 30.738 22.6487 30.826 22.6097L35.6024 20.4934C35.823 20.3957 35.9632 20.1907 35.9632 19.9658V12.8958L41.851 10.2871V30.2787Z" fill="black"/>
<path d="M8.82042 28.0062L5.9165 26.7196C5.59883 26.5787 5.21732 26.701 5.06401 26.9924C4.91071 27.2839 5.04384 27.6342 5.36134 27.7749L8.26526 29.0615C8.35472 29.1012 8.44929 29.1199 8.54232 29.1199C8.77964 29.1199 9.0076 28.9979 9.11766 28.7886C9.27105 28.4971 9.13792 28.147 8.82042 28.0062Z" fill="black"/>
<path d="M11.4929 26.4096L5.92048 23.9405C5.60289 23.7998 5.22129 23.922 5.06799 24.2135C4.91477 24.5049 5.0479 24.8552 5.3654 24.9959L10.9379 27.4649C11.0273 27.5046 11.1219 27.5234 11.2149 27.5234C11.4523 27.5234 11.6802 27.4014 11.7903 27.1921C11.9436 26.9005 11.8104 26.5502 11.4929 26.4096Z" fill="black"/>
</g>
<defs>
<clipPath id="clip0_226_692">
<rect width="43.5821" height="40" fill="white" transform="translate(0.9104)"/>
</clipPath>
</defs>
</svg>
